%TF.GenerationSoftware,KiCad,Pcbnew,8.0.8*%
%TF.CreationDate,2025-02-15T23:13:22-05:00*%
%TF.ProjectId,Hackpad,4861636b-7061-4642-9e6b-696361645f70,rev?*%
%TF.SameCoordinates,Original*%
%TF.FileFunction,Soldermask,Top*%
%TF.FilePolarity,Negative*%
%FSLAX46Y46*%
G04 Gerber Fmt 4.6, Leading zero omitted, Abs format (unit mm)*
G04 Created by KiCad (PCBNEW 8.0.8) date 2025-02-15 23:13:22*
%MOMM*%
%LPD*%
G01*
G04 APERTURE LIST*
%ADD10C,3.200000*%
%ADD11C,1.701800*%
%ADD12C,3.987800*%
%ADD13C,1.400000*%
%ADD14O,1.400000X1.400000*%
%ADD15R,2.000000X2.000000*%
%ADD16C,2.000000*%
%ADD17R,3.200000X2.000000*%
%ADD18R,3.500000X1.700000*%
%ADD19O,3.600000X1.700000*%
%ADD20O,3.700000X1.700000*%
%ADD21O,1.600000X2.000000*%
%ADD22R,1.500000X1.000000*%
%ADD23R,1.600000X1.600000*%
%ADD24O,1.600000X1.600000*%
G04 APERTURE END LIST*
D10*
%TO.C,H2*%
X72500000Y-173750000D03*
%TD*%
%TO.C,H1*%
X72500000Y-93750000D03*
%TD*%
D11*
%TO.C,SW7*%
X78370000Y-140120000D03*
D12*
X83450000Y-140120000D03*
D11*
X88530000Y-140120000D03*
%TD*%
D13*
%TO.C,R3*%
X126580000Y-96880000D03*
D14*
X126580000Y-104500000D03*
%TD*%
D15*
%TO.C,SW13*%
X131500000Y-97750000D03*
D16*
X131500000Y-102750000D03*
X131500000Y-100250000D03*
D17*
X139000000Y-94650000D03*
X139000000Y-105850000D03*
D16*
X146000000Y-102750000D03*
X146000000Y-97750000D03*
%TD*%
D13*
%TO.C,R4*%
X128750000Y-104500000D03*
D14*
X128750000Y-96880000D03*
%TD*%
D18*
%TO.C,U1*%
X103464500Y-93192015D03*
D19*
X103464500Y-95732015D03*
X103464500Y-98272015D03*
X103464500Y-100812015D03*
X103464500Y-103352015D03*
X103464500Y-105892015D03*
X103464500Y-108432015D03*
X120714500Y-108432015D03*
X120714500Y-105892015D03*
X120714500Y-103352015D03*
D20*
X120714500Y-100812015D03*
X120714500Y-98272015D03*
X120714500Y-95732015D03*
X120714500Y-93192015D03*
%TD*%
D21*
%TO.C,Brd1*%
X108080000Y-151550000D03*
X110620000Y-151550000D03*
X113160000Y-151550000D03*
X115700000Y-151550000D03*
%TD*%
D11*
%TO.C,SW11*%
X116420000Y-140118050D03*
D12*
X121500000Y-140118050D03*
D11*
X126580000Y-140118050D03*
%TD*%
D22*
%TO.C,D15*%
X132500000Y-166420000D03*
X132500000Y-169620000D03*
X137400000Y-169620000D03*
X137400000Y-166420000D03*
%TD*%
D11*
%TO.C,SW4*%
X135420000Y-121080000D03*
D12*
X140500000Y-121080000D03*
D11*
X145580000Y-121080000D03*
%TD*%
D22*
%TO.C,D16*%
X86600000Y-153000000D03*
X86600000Y-156200000D03*
X91500000Y-156200000D03*
X91500000Y-153000000D03*
%TD*%
D23*
%TO.C,D6*%
X150040000Y-125000000D03*
D24*
X150040000Y-117380000D03*
%TD*%
D23*
%TO.C,D5*%
X131040000Y-125000000D03*
D24*
X131040000Y-117380000D03*
%TD*%
D22*
%TO.C,D18*%
X86600000Y-166240000D03*
X86600000Y-169440000D03*
X91500000Y-169440000D03*
X91500000Y-166240000D03*
%TD*%
D23*
%TO.C,D10*%
X150000000Y-144000000D03*
D24*
X150000000Y-136380000D03*
%TD*%
D22*
%TO.C,D2*%
X140050000Y-159800000D03*
X140050000Y-163000000D03*
X144950000Y-163000000D03*
X144950000Y-159800000D03*
%TD*%
%TO.C,D17*%
X79050000Y-159800000D03*
X79050000Y-163000000D03*
X83950000Y-163000000D03*
X83950000Y-159800000D03*
%TD*%
D10*
%TO.C,H3*%
X151500000Y-93750000D03*
%TD*%
D11*
%TO.C,SW8*%
X135420000Y-140118050D03*
D12*
X140500000Y-140118050D03*
D11*
X145580000Y-140118050D03*
%TD*%
%TO.C,SW2*%
X97420000Y-121080000D03*
D12*
X102500000Y-121080000D03*
D11*
X107580000Y-121080000D03*
%TD*%
%TO.C,SW3*%
X116420000Y-121080000D03*
D12*
X121500000Y-121080000D03*
D11*
X126580000Y-121080000D03*
%TD*%
D10*
%TO.C,H4*%
X151500000Y-173750000D03*
%TD*%
D11*
%TO.C,SW10*%
X97420000Y-140118050D03*
D12*
X102500000Y-140118050D03*
D11*
X107580000Y-140118050D03*
%TD*%
D23*
%TO.C,D8*%
X92970000Y-125040000D03*
D24*
X92970000Y-117420000D03*
%TD*%
D13*
%TO.C,R1*%
X128800000Y-165200000D03*
D14*
X128800000Y-157580000D03*
%TD*%
D23*
%TO.C,D4*%
X112040000Y-125000000D03*
D24*
X112040000Y-117380000D03*
%TD*%
D11*
%TO.C,SW6*%
X78370000Y-121080000D03*
D12*
X83450000Y-121080000D03*
D11*
X88530000Y-121080000D03*
%TD*%
D22*
%TO.C,D1*%
X132500000Y-153180000D03*
X132500000Y-156380000D03*
X137400000Y-156380000D03*
X137400000Y-153180000D03*
%TD*%
D23*
%TO.C,D12*%
X112000000Y-144000000D03*
D24*
X112000000Y-136380000D03*
%TD*%
D23*
%TO.C,D9*%
X92990000Y-144040000D03*
D24*
X92990000Y-136420000D03*
%TD*%
D13*
%TO.C,R2*%
X95250000Y-165200000D03*
D14*
X95250000Y-157580000D03*
%TD*%
D23*
%TO.C,D13*%
X131000000Y-144000000D03*
D24*
X131000000Y-136380000D03*
%TD*%
D23*
%TO.C,D14*%
X148750000Y-110370000D03*
D24*
X148750000Y-102750000D03*
%TD*%
M02*
