%TF.GenerationSoftware,KiCad,Pcbnew,8.0.8*%
%TF.CreationDate,2025-02-15T23:13:22-05:00*%
%TF.ProjectId,Hackpad,4861636b-7061-4642-9e6b-696361645f70,rev?*%
%TF.SameCoordinates,Original*%
%TF.FileFunction,Copper,L1,Top*%
%TF.FilePolarity,Positive*%
%FSLAX46Y46*%
G04 Gerber Fmt 4.6, Leading zero omitted, Abs format (unit mm)*
G04 Created by KiCad (PCBNEW 8.0.8) date 2025-02-15 23:13:22*
%MOMM*%
%LPD*%
G01*
G04 APERTURE LIST*
%TA.AperFunction,ComponentPad*%
%ADD10C,2.300000*%
%TD*%
%TA.AperFunction,ComponentPad*%
%ADD11C,1.400000*%
%TD*%
%TA.AperFunction,ComponentPad*%
%ADD12O,1.400000X1.400000*%
%TD*%
%TA.AperFunction,ComponentPad*%
%ADD13R,2.000000X2.000000*%
%TD*%
%TA.AperFunction,ComponentPad*%
%ADD14C,2.000000*%
%TD*%
%TA.AperFunction,ComponentPad*%
%ADD15R,3.200000X2.000000*%
%TD*%
%TA.AperFunction,ComponentPad*%
%ADD16R,3.500000X1.700000*%
%TD*%
%TA.AperFunction,ComponentPad*%
%ADD17O,3.600000X1.700000*%
%TD*%
%TA.AperFunction,ComponentPad*%
%ADD18O,3.700000X1.700000*%
%TD*%
%TA.AperFunction,ComponentPad*%
%ADD19O,1.600000X2.000000*%
%TD*%
%TA.AperFunction,SMDPad,CuDef*%
%ADD20R,1.500000X1.000000*%
%TD*%
%TA.AperFunction,ComponentPad*%
%ADD21R,1.600000X1.600000*%
%TD*%
%TA.AperFunction,ComponentPad*%
%ADD22O,1.600000X1.600000*%
%TD*%
%TA.AperFunction,Conductor*%
%ADD23C,0.200000*%
%TD*%
G04 APERTURE END LIST*
D10*
%TO.P,SW7,1,1*%
%TO.N,col1*%
X79640000Y-137580000D03*
%TO.P,SW7,2,2*%
%TO.N,Net-(D9-A)*%
X85990000Y-135040000D03*
%TD*%
D11*
%TO.P,R3,1*%
%TO.N,Enc_A*%
X126580000Y-96880000D03*
D12*
%TO.P,R3,2*%
%TO.N,+3.3V*%
X126580000Y-104500000D03*
%TD*%
D13*
%TO.P,SW13,A,A*%
%TO.N,Enc_A*%
X131500000Y-97750000D03*
D14*
%TO.P,SW13,B,B*%
%TO.N,Enc_B*%
X131500000Y-102750000D03*
%TO.P,SW13,C,C*%
%TO.N,GND*%
X131500000Y-100250000D03*
D15*
%TO.P,SW13,MP*%
%TO.N,N/C*%
X139000000Y-94650000D03*
X139000000Y-105850000D03*
D14*
%TO.P,SW13,S1,S1*%
%TO.N,Enc_SWA*%
X146000000Y-102750000D03*
%TO.P,SW13,S2,S2*%
%TO.N,Enc_SWB*%
X146000000Y-97750000D03*
%TD*%
D11*
%TO.P,R4,1*%
%TO.N,Enc_B*%
X128750000Y-104500000D03*
D12*
%TO.P,R4,2*%
%TO.N,+3.3V*%
X128750000Y-96880000D03*
%TD*%
D16*
%TO.P,U1,1,PA02_A0_D0*%
%TO.N,col0*%
X103464500Y-93192015D03*
D17*
%TO.P,U1,2,PA4_A1_D1*%
%TO.N,col1*%
X103464500Y-95732015D03*
%TO.P,U1,3,PA10_A2_D2*%
%TO.N,Enc_SWB*%
X103464500Y-98272015D03*
%TO.P,U1,4,PA11_A3_D3*%
%TO.N,Enc_A*%
X103464500Y-100812015D03*
%TO.P,U1,5,PA8_A4_D4_SDA*%
%TO.N,OLED_SDA*%
X103464500Y-103352015D03*
%TO.P,U1,6,PA9_A5_D5_SCL*%
%TO.N,OLED_SCL*%
X103464500Y-105892015D03*
%TO.P,U1,7,PB08_A6_D6_TX*%
%TO.N,Enc_B*%
X103464500Y-108432015D03*
%TO.P,U1,8,PB09_A7_D7_RX*%
%TO.N,row0*%
X120714500Y-108432015D03*
%TO.P,U1,9,PA7_A8_D8_SCK*%
%TO.N,row1*%
X120714500Y-105892015D03*
%TO.P,U1,10,PA5_A9_D9_MISO*%
%TO.N,row2*%
X120714500Y-103352015D03*
D18*
%TO.P,U1,11,PA6_A10_D10_MOSI*%
%TO.N,Led*%
X120714500Y-100812015D03*
%TO.P,U1,12,3V3*%
%TO.N,+3.3V*%
X120714500Y-98272015D03*
%TO.P,U1,13,GND*%
%TO.N,GND*%
X120714500Y-95732015D03*
%TO.P,U1,14,5V*%
%TO.N,+5V*%
X120714500Y-93192015D03*
%TD*%
D19*
%TO.P,Brd1,1,GND*%
%TO.N,GND*%
X108080000Y-151550000D03*
%TO.P,Brd1,2,VCC*%
%TO.N,+5V*%
X110620000Y-151550000D03*
%TO.P,Brd1,3,SCL*%
%TO.N,OLED_SCL*%
X113160000Y-151550000D03*
%TO.P,Brd1,4,SDA*%
%TO.N,OLED_SDA*%
X115700000Y-151550000D03*
%TD*%
D10*
%TO.P,SW11,1,1*%
%TO.N,col1*%
X117690000Y-137578050D03*
%TO.P,SW11,2,2*%
%TO.N,Net-(D13-A)*%
X124040000Y-135038050D03*
%TD*%
D20*
%TO.P,D15,1,VSS*%
%TO.N,GND*%
X132500000Y-166420000D03*
%TO.P,D15,2,DIN*%
%TO.N,Net-(D15-DIN)*%
X132500000Y-169620000D03*
%TO.P,D15,3,VDD*%
%TO.N,+5V*%
X137400000Y-169620000D03*
%TO.P,D15,4,DOUT*%
%TO.N,Net-(D15-DOUT)*%
X137400000Y-166420000D03*
%TD*%
D10*
%TO.P,SW4,1,1*%
%TO.N,Enc_SWB*%
X136690000Y-118540000D03*
%TO.P,SW4,2,2*%
%TO.N,Net-(D6-A)*%
X143040000Y-116000000D03*
%TD*%
D20*
%TO.P,D16,1,VSS*%
%TO.N,GND*%
X86600000Y-153000000D03*
%TO.P,D16,2,DIN*%
%TO.N,Net-(D15-DOUT)*%
X86600000Y-156200000D03*
%TO.P,D16,3,VDD*%
%TO.N,+5V*%
X91500000Y-156200000D03*
%TO.P,D16,4,DOUT*%
%TO.N,Net-(D16-DOUT)*%
X91500000Y-153000000D03*
%TD*%
D21*
%TO.P,D6,1,K*%
%TO.N,row2*%
X150040000Y-125000000D03*
D22*
%TO.P,D6,2,A*%
%TO.N,Net-(D6-A)*%
X150040000Y-117380000D03*
%TD*%
D21*
%TO.P,D5,1,K*%
%TO.N,row2*%
X131040000Y-125000000D03*
D22*
%TO.P,D5,2,A*%
%TO.N,Net-(D5-A)*%
X131040000Y-117380000D03*
%TD*%
D20*
%TO.P,D18,1,VSS*%
%TO.N,GND*%
X86600000Y-166240000D03*
%TO.P,D18,2,DIN*%
%TO.N,Net-(D17-DOUT)*%
X86600000Y-169440000D03*
%TO.P,D18,3,VDD*%
%TO.N,+5V*%
X91500000Y-169440000D03*
%TO.P,D18,4,DOUT*%
%TO.N,unconnected-(D18-DOUT-Pad4)*%
X91500000Y-166240000D03*
%TD*%
D21*
%TO.P,D10,1,K*%
%TO.N,row1*%
X150000000Y-144000000D03*
D22*
%TO.P,D10,2,A*%
%TO.N,Net-(D10-A)*%
X150000000Y-136380000D03*
%TD*%
D20*
%TO.P,D2,1,VSS*%
%TO.N,GND*%
X140050000Y-159800000D03*
%TO.P,D2,2,DIN*%
%TO.N,Net-(D1-DOUT)*%
X140050000Y-163000000D03*
%TO.P,D2,3,VDD*%
%TO.N,+5V*%
X144950000Y-163000000D03*
%TO.P,D2,4,DOUT*%
%TO.N,Net-(D15-DIN)*%
X144950000Y-159800000D03*
%TD*%
%TO.P,D17,1,VSS*%
%TO.N,GND*%
X79050000Y-159800000D03*
%TO.P,D17,2,DIN*%
%TO.N,Net-(D16-DOUT)*%
X79050000Y-163000000D03*
%TO.P,D17,3,VDD*%
%TO.N,+5V*%
X83950000Y-163000000D03*
%TO.P,D17,4,DOUT*%
%TO.N,Net-(D17-DOUT)*%
X83950000Y-159800000D03*
%TD*%
D10*
%TO.P,SW8,1,1*%
%TO.N,Enc_SWB*%
X136690000Y-137578050D03*
%TO.P,SW8,2,2*%
%TO.N,Net-(D10-A)*%
X143040000Y-135038050D03*
%TD*%
%TO.P,SW2,1,1*%
%TO.N,col0*%
X98690000Y-118540000D03*
%TO.P,SW2,2,2*%
%TO.N,Net-(D4-A)*%
X105040000Y-116000000D03*
%TD*%
%TO.P,SW3,1,1*%
%TO.N,col1*%
X117690000Y-118540000D03*
%TO.P,SW3,2,2*%
%TO.N,Net-(D5-A)*%
X124040000Y-116000000D03*
%TD*%
%TO.P,SW10,1,1*%
%TO.N,col0*%
X98690000Y-137578050D03*
%TO.P,SW10,2,2*%
%TO.N,Net-(D12-A)*%
X105040000Y-135038050D03*
%TD*%
D21*
%TO.P,D8,1,K*%
%TO.N,row0*%
X92970000Y-125040000D03*
D22*
%TO.P,D8,2,A*%
%TO.N,Net-(D8-A)*%
X92970000Y-117420000D03*
%TD*%
D11*
%TO.P,R1,1*%
%TO.N,OLED_SCL*%
X128800000Y-165200000D03*
D12*
%TO.P,R1,2*%
%TO.N,+3.3V*%
X128800000Y-157580000D03*
%TD*%
D21*
%TO.P,D4,1,K*%
%TO.N,row2*%
X112040000Y-125000000D03*
D22*
%TO.P,D4,2,A*%
%TO.N,Net-(D4-A)*%
X112040000Y-117380000D03*
%TD*%
D10*
%TO.P,SW6,1,1*%
%TO.N,col0*%
X79640000Y-118540000D03*
%TO.P,SW6,2,2*%
%TO.N,Net-(D8-A)*%
X85990000Y-116000000D03*
%TD*%
D20*
%TO.P,D1,1,VSS*%
%TO.N,GND*%
X132500000Y-153180000D03*
%TO.P,D1,2,DIN*%
%TO.N,Led*%
X132500000Y-156380000D03*
%TO.P,D1,3,VDD*%
%TO.N,+5V*%
X137400000Y-156380000D03*
%TO.P,D1,4,DOUT*%
%TO.N,Net-(D1-DOUT)*%
X137400000Y-153180000D03*
%TD*%
D21*
%TO.P,D12,1,K*%
%TO.N,row1*%
X112000000Y-144000000D03*
D22*
%TO.P,D12,2,A*%
%TO.N,Net-(D12-A)*%
X112000000Y-136380000D03*
%TD*%
D21*
%TO.P,D9,1,K*%
%TO.N,row0*%
X92990000Y-144040000D03*
D22*
%TO.P,D9,2,A*%
%TO.N,Net-(D9-A)*%
X92990000Y-136420000D03*
%TD*%
D11*
%TO.P,R2,1*%
%TO.N,OLED_SDA*%
X95250000Y-165200000D03*
D12*
%TO.P,R2,2*%
%TO.N,+3.3V*%
X95250000Y-157580000D03*
%TD*%
D21*
%TO.P,D13,1,K*%
%TO.N,row1*%
X131000000Y-144000000D03*
D22*
%TO.P,D13,2,A*%
%TO.N,Net-(D13-A)*%
X131000000Y-136380000D03*
%TD*%
D21*
%TO.P,D14,1,K*%
%TO.N,row0*%
X148750000Y-110370000D03*
D22*
%TO.P,D14,2,A*%
%TO.N,Enc_SWA*%
X148750000Y-102750000D03*
%TD*%
D23*
%TO.N,+5V*%
X106500000Y-151250000D02*
X107750000Y-150000000D01*
X85184314Y-151250000D02*
X106500000Y-151250000D01*
X146000000Y-161950000D02*
X146000000Y-159000000D01*
X136600000Y-170420000D02*
X137400000Y-169620000D01*
X138250000Y-158500000D02*
X137400000Y-157650000D01*
X137400000Y-157650000D02*
X137400000Y-156380000D01*
X85550000Y-167040000D02*
X82760000Y-164250000D01*
X87710000Y-167040000D02*
X85550000Y-167040000D01*
X137400000Y-169620000D02*
X138330000Y-169620000D01*
X138330000Y-169620000D02*
X144950000Y-163000000D01*
X145500000Y-158500000D02*
X138250000Y-158500000D01*
X82900000Y-161950000D02*
X82900000Y-159000000D01*
X82900000Y-159000000D02*
X84500000Y-157400000D01*
X144950000Y-163000000D02*
X146000000Y-161950000D01*
X87750000Y-165540000D02*
X85210000Y-163000000D01*
X85210000Y-163000000D02*
X83950000Y-163000000D01*
X77250000Y-159184314D02*
X85184314Y-151250000D01*
X107750000Y-150000000D02*
X110500000Y-150000000D01*
X78500000Y-164250000D02*
X77250000Y-163000000D01*
X82760000Y-164250000D02*
X78500000Y-164250000D01*
X83950000Y-163000000D02*
X82900000Y-161950000D01*
X87750000Y-167724314D02*
X87750000Y-167000000D01*
X85550000Y-168640000D02*
X86834314Y-168640000D01*
X92480000Y-170420000D02*
X136600000Y-170420000D01*
X110500000Y-150000000D02*
X110620000Y-150120000D01*
X77250000Y-163000000D02*
X77250000Y-159184314D01*
X85550000Y-170240000D02*
X85550000Y-168640000D01*
X84500000Y-157400000D02*
X90300000Y-157400000D01*
X91500000Y-169440000D02*
X92480000Y-170420000D01*
X90700000Y-170240000D02*
X85550000Y-170240000D01*
X86834314Y-168640000D02*
X87750000Y-167724314D01*
X91500000Y-169440000D02*
X90700000Y-170240000D01*
X87750000Y-167000000D02*
X87710000Y-167040000D01*
X87750000Y-167000000D02*
X87750000Y-165540000D01*
X90300000Y-157400000D02*
X91500000Y-156200000D01*
X110620000Y-150120000D02*
X110620000Y-151550000D01*
X146000000Y-159000000D02*
X145500000Y-158500000D01*
%TO.N,GND*%
X106861372Y-153900000D02*
X126900000Y-153900000D01*
X138468628Y-168350000D02*
X141100000Y-165718628D01*
X149850000Y-111470000D02*
X143600000Y-117720000D01*
X137085686Y-153980000D02*
X138450000Y-153980000D01*
X132500000Y-153180000D02*
X132430000Y-153250000D01*
X84565686Y-153000000D02*
X86600000Y-153000000D01*
X137300000Y-104550000D02*
X145130000Y-104550000D01*
X131350000Y-165270000D02*
X132500000Y-166420000D01*
X79050000Y-159800000D02*
X79050000Y-158515686D01*
X86600000Y-153000000D02*
X87400000Y-153800000D01*
X131500000Y-100250000D02*
X133000000Y-100250000D01*
X137000000Y-139318660D02*
X137000000Y-145000000D01*
X138450000Y-153980000D02*
X138450000Y-152450000D01*
X138450000Y-152450000D02*
X138380000Y-152380000D01*
X136350000Y-157180000D02*
X136350000Y-154715686D01*
X132500000Y-166420000D02*
X134430000Y-168350000D01*
X133000000Y-100250000D02*
X137300000Y-104550000D01*
X106161372Y-154600000D02*
X106861372Y-153900000D01*
X87650000Y-157000000D02*
X90050000Y-154600000D01*
X85550000Y-154050000D02*
X85550000Y-157000000D01*
X141100000Y-165718628D02*
X141100000Y-160850000D01*
X129000000Y-153000000D02*
X109530000Y-153000000D01*
X126900000Y-153900000D02*
X131350000Y-158350000D01*
X79050000Y-158515686D02*
X84565686Y-153000000D01*
X81550000Y-163800000D02*
X79050000Y-161300000D01*
X140050000Y-159800000D02*
X138970000Y-159800000D01*
X143600000Y-131191539D02*
X138140000Y-136651539D01*
X86600000Y-165100000D02*
X85300000Y-163800000D01*
X138140000Y-138178660D02*
X137000000Y-139318660D01*
X85550000Y-157000000D02*
X87650000Y-157000000D01*
X143600000Y-117720000D02*
X143600000Y-131191539D01*
X79050000Y-161300000D02*
X79050000Y-159800000D01*
X85300000Y-163800000D02*
X81550000Y-163800000D01*
X87400000Y-153800000D02*
X105830000Y-153800000D01*
X131350000Y-158350000D02*
X131350000Y-165270000D01*
X90050000Y-154600000D02*
X106161372Y-154600000D01*
X133300000Y-152380000D02*
X132500000Y-153180000D01*
X137000000Y-145000000D02*
X129000000Y-153000000D01*
X109530000Y-153000000D02*
X108080000Y-151550000D01*
X141100000Y-160850000D02*
X140050000Y-159800000D01*
X138140000Y-136651539D02*
X138140000Y-138178660D01*
X136350000Y-154715686D02*
X137085686Y-153980000D01*
X149850000Y-109270000D02*
X149850000Y-111470000D01*
X138380000Y-152380000D02*
X133300000Y-152380000D01*
X105830000Y-153800000D02*
X108080000Y-151550000D01*
X138970000Y-159800000D02*
X136350000Y-157180000D01*
X134430000Y-168350000D02*
X138468628Y-168350000D01*
X86600000Y-153000000D02*
X85550000Y-154050000D01*
X145130000Y-104550000D02*
X149850000Y-109270000D01*
X86600000Y-166240000D02*
X86600000Y-165100000D01*
%TO.N,Led*%
X118526515Y-102000000D02*
X119714500Y-100812015D01*
X131450000Y-155330000D02*
X131450000Y-152482825D01*
X144000000Y-131357225D02*
X144000000Y-117885686D01*
X138540000Y-136817225D02*
X144000000Y-131357225D01*
X150250000Y-100161522D02*
X142130493Y-92042015D01*
X109970846Y-92042015D02*
X104890846Y-97122015D01*
X101364500Y-97795669D02*
X101364500Y-101288361D01*
X101364500Y-101288361D02*
X102076139Y-102000000D01*
X144000000Y-117885686D02*
X150250000Y-111635686D01*
X142130493Y-92042015D02*
X109970846Y-92042015D01*
X150250000Y-111635686D02*
X150250000Y-100161522D01*
X137500000Y-146432825D02*
X137500000Y-139384346D01*
X132500000Y-156380000D02*
X131450000Y-155330000D01*
X102038154Y-97122015D02*
X101364500Y-97795669D01*
X131450000Y-152482825D02*
X137500000Y-146432825D01*
X137500000Y-139384346D02*
X138540000Y-138344346D01*
X102076139Y-102000000D02*
X118526515Y-102000000D01*
X138540000Y-138344346D02*
X138540000Y-136817225D01*
X104890846Y-97122015D02*
X102038154Y-97122015D01*
%TO.N,Net-(D1-DOUT)*%
X137400000Y-153180000D02*
X137320000Y-153180000D01*
X135950000Y-157345686D02*
X139000000Y-160395686D01*
X137320000Y-153180000D02*
X135950000Y-154550000D01*
X139000000Y-160395686D02*
X139000000Y-161950000D01*
X135950000Y-154550000D02*
X135950000Y-157345686D01*
X139000000Y-161950000D02*
X140050000Y-163000000D01*
%TO.N,Net-(D15-DIN)*%
X143900000Y-163484314D02*
X143900000Y-160850000D01*
X133370000Y-168750000D02*
X138634314Y-168750000D01*
X143900000Y-160850000D02*
X144950000Y-159800000D01*
X132500000Y-169620000D02*
X133370000Y-168750000D01*
X138634314Y-168750000D02*
X143900000Y-163484314D01*
%TO.N,row1*%
X151250000Y-100595836D02*
X151250000Y-142750000D01*
X100964500Y-103428361D02*
X100964500Y-95655669D01*
X142296179Y-91642015D02*
X151250000Y-100595836D01*
X100964500Y-95655669D02*
X102038154Y-94582015D01*
X119714500Y-105892015D02*
X118324500Y-104502015D01*
X109805160Y-91642015D02*
X142296179Y-91642015D01*
X102038154Y-94582015D02*
X106865160Y-94582015D01*
X102038154Y-104502015D02*
X100964500Y-103428361D01*
X106865160Y-94582015D02*
X109805160Y-91642015D01*
X151250000Y-142750000D02*
X150000000Y-144000000D01*
X118324500Y-104502015D02*
X102038154Y-104502015D01*
%TO.N,Net-(D15-DOUT)*%
X137400000Y-166420000D02*
X134420000Y-166420000D01*
X105995686Y-154200000D02*
X88600000Y-154200000D01*
X127250000Y-153500000D02*
X106695686Y-153500000D01*
X88600000Y-154200000D02*
X86600000Y-156200000D01*
X131750000Y-158000000D02*
X127250000Y-153500000D01*
X106695686Y-153500000D02*
X105995686Y-154200000D01*
X134420000Y-166420000D02*
X131750000Y-163750000D01*
X131750000Y-163750000D02*
X131750000Y-158000000D01*
%TO.N,Net-(D16-DOUT)*%
X90700000Y-152200000D02*
X91500000Y-153000000D01*
X79050000Y-163000000D02*
X78000000Y-161950000D01*
X78000000Y-159000000D02*
X84800000Y-152200000D01*
X78000000Y-161950000D02*
X78000000Y-159000000D01*
X84800000Y-152200000D02*
X90700000Y-152200000D01*
%TO.N,Net-(D17-DOUT)*%
X88150000Y-165374314D02*
X83950000Y-161174314D01*
X86600000Y-169440000D02*
X88150000Y-167890000D01*
X83950000Y-161174314D02*
X83950000Y-159800000D01*
X88150000Y-167890000D02*
X88150000Y-165374314D01*
%TO.N,col1*%
X97398230Y-136128050D02*
X95946280Y-137580000D01*
X117690000Y-118540000D02*
X117690000Y-137578050D01*
X100128050Y-136128050D02*
X97398230Y-136128050D01*
X95946280Y-137580000D02*
X79640000Y-137580000D01*
X117690000Y-137578050D02*
X101578050Y-137578050D01*
X101578050Y-137578050D02*
X100128050Y-136128050D01*
%TO.N,Enc_SWB*%
X108236515Y-94500000D02*
X104464500Y-98272015D01*
X136690000Y-118540000D02*
X136690000Y-137578050D01*
X130850000Y-94500000D02*
X108236515Y-94500000D01*
X146000000Y-97750000D02*
X134100000Y-97750000D01*
X134100000Y-97750000D02*
X130850000Y-94500000D01*
%TO.N,Enc_B*%
X126957985Y-106292015D02*
X122890846Y-106292015D01*
X122890846Y-106292015D02*
X122140846Y-107042015D01*
X122140846Y-107042015D02*
X105854500Y-107042015D01*
X105854500Y-107042015D02*
X104464500Y-108432015D01*
X128750000Y-104500000D02*
X126957985Y-106292015D01*
%TO.N,Enc_A*%
X126577985Y-96882015D02*
X108394500Y-96882015D01*
X108394500Y-96882015D02*
X104464500Y-100812015D01*
X126580000Y-96880000D02*
X126577985Y-96882015D01*
%TO.N,row0*%
X95158329Y-125040000D02*
X92970000Y-125040000D01*
X148750000Y-112004314D02*
X146504314Y-114250000D01*
X146504314Y-114250000D02*
X119750000Y-114250000D01*
X100140000Y-117939390D02*
X100140000Y-120058329D01*
X119714500Y-108432015D02*
X119714500Y-114214500D01*
X119750000Y-114250000D02*
X103829390Y-114250000D01*
X103829390Y-114250000D02*
X100140000Y-117939390D01*
X100140000Y-120058329D02*
X95158329Y-125040000D01*
X119714500Y-114214500D02*
X119750000Y-114250000D01*
X148750000Y-110370000D02*
X148750000Y-112004314D01*
%TD*%
M02*
